<svg width="59" height="59" viewBox="0 0 59 59" fill="none" xmlns="http://www.w3.org/2000/svg">
<path d="M36.4141 48.6289H22.5859C21.6313 48.6289 20.8574 49.4028 20.8574 50.3574C20.8574 55.1229 24.7345 59 29.5 59C34.2655 59 38.1426 55.1229 38.1426 50.3574C38.1426 49.4028 37.3687 48.6289 36.4141 48.6289Z" fill="url(#paint0_linear)"/>
<path d="M29.5 0C26.6407 0 24.3145 2.32624 24.3145 5.18555V8.9884C24.3145 9.943 25.0884 10.7169 26.043 10.7169H32.957C33.9116 10.7169 34.6855 9.943 34.6855 8.9884V5.18555C34.6855 2.32624 32.3593 0 29.5 0V0Z" fill="url(#paint1_linear)"/>
<path d="M53.6992 48.6289C50.8399 48.6289 48.5137 46.3027 48.5137 43.4433V26.6706C48.5137 16.296 40.51 6.86313 29.3848 6.91279C18.7343 6.9605 10.4863 15.6928 10.4863 25.9277V43.4433C10.4863 46.3027 8.16009 48.6289 5.30078 48.6289C4.34618 48.6289 3.57227 49.4028 3.57227 50.3574C3.57227 51.312 4.34618 52.0859 5.30078 52.0859H53.6992C54.6538 52.0859 55.4277 51.312 55.4277 50.3574C55.4277 49.4028 54.6538 48.6289 53.6992 48.6289Z" fill="url(#paint2_linear)"/>
<defs>
<linearGradient id="paint0_linear" x1="29.5" y1="59" x2="29.5" y2="48.6289" gradientUnits="userSpaceOnUse">
<stop stop-color="#FFE59A"/>
<stop offset="1" stop-color="#FFFFD5"/>
</linearGradient>
<linearGradient id="paint1_linear" x1="29.5" y1="10.7169" x2="29.5" y2="0" gradientUnits="userSpaceOnUse">
<stop stop-color="#FFE59A"/>
<stop offset="1" stop-color="#FFFFD5"/>
</linearGradient>
<linearGradient id="paint2_linear" x1="29.5" y1="52.0859" x2="29.5" y2="6.91268" gradientUnits="userSpaceOnUse">
<stop stop-color="#FD5900"/>
<stop offset="1" stop-color="#FFDE00"/>
</linearGradient>
</defs>
</svg>
