<svg width="41" height="41" viewBox="0 0 41 41" fill="none" xmlns="http://www.w3.org/2000/svg">
<path d="M20.5 41C9.19596 41 0 31.804 0 20.5C0 9.19596 9.19596 0 20.5 0C31.804 0 41 9.19596 41 20.5C41 31.804 31.804 41 20.5 41ZM20.5 1.70833C10.139 1.70833 1.70833 10.139 1.70833 20.5C1.70833 30.861 10.139 39.2917 20.5 39.2917C30.861 39.2917 39.2917 30.861 39.2917 20.5C39.2917 10.139 30.861 1.70833 20.5 1.70833Z" fill="#737990"/>
<path d="M20.5 13.6666C19.0872 13.6666 17.9375 12.5169 17.9375 11.1041C17.9375 9.69134 19.0872 8.54163 20.5 8.54163C21.9128 8.54163 23.0625 9.69134 23.0625 11.1041C23.0625 12.5169 21.9128 13.6666 20.5 13.6666ZM20.5 10.25C20.0302 10.25 19.6458 10.6326 19.6458 11.1041C19.6458 11.5756 20.0302 11.9583 20.5 11.9583C20.9698 11.9583 21.3542 11.5756 21.3542 11.1041C21.3542 10.6326 20.9698 10.25 20.5 10.25Z" fill="#737990"/>
<path d="M20.5 30.75C20.0285 30.75 19.6458 30.3673 19.6458 29.8958V18.7916H17.9375C17.466 18.7916 17.0833 18.409 17.0833 17.9375C17.0833 17.466 17.466 17.0833 17.9375 17.0833H20.5C20.9715 17.0833 21.3541 17.466 21.3541 17.9375V29.8958C21.3541 30.3673 20.9715 30.75 20.5 30.75Z" fill="#737990"/>
<path d="M23.9167 30.75H17.0834C16.6119 30.75 16.2292 30.3673 16.2292 29.8958C16.2292 29.4243 16.6119 29.0416 17.0834 29.0416H23.9167C24.3882 29.0416 24.7709 29.4243 24.7709 29.8958C24.7709 30.3673 24.3882 30.75 23.9167 30.75Z" fill="#737990"/>
</svg>
