<svg width="37" height="43" viewBox="0 0 37 43" fill="none" xmlns="http://www.w3.org/2000/svg">
<path d="M18.775 42.8823C21.1335 42.8823 23.0632 40.9526 23.0632 38.5941H14.4868C14.4868 40.9526 16.4165 42.8823 18.775 42.8823ZM32.7118 30.0176V18.225C32.7118 11.5782 28.2091 6.21794 21.9912 4.71706V3.21618C21.9912 1.50088 20.4903 0 18.775 0C17.0597 0 15.5588 1.50088 15.5588 3.21618V4.71706C9.34089 6.21794 4.83824 11.5782 4.83824 18.225V30.0176L0.550003 34.3059V36.45H37V34.3059L32.7118 30.0176ZM28.4235 32.1618H9.12647V18.225C9.12647 12.8647 13.4147 8.57647 18.775 8.57647C24.1353 8.57647 28.4235 12.8647 28.4235 18.225V32.1618Z" fill="#737990"/>
</svg>
